<?xml version="1.0" standalone="no"?><!DOCTYPE svg PUBLIC "-//W3C//DTD SVG 1.1//EN" "http://www.w3.org/Graphics/SVG/1.1/DTD/svg11.dtd"><svg t="1678519064173" class="icon" viewBox="0 0 1024 1024" version="1.1" xmlns="http://www.w3.org/2000/svg" p-id="56768" xmlns:xlink="http://www.w3.org/1999/xlink" width="200" height="200"><path d="M896.75 498.4H131.29c-35.7 0-64.74-29.04-64.74-64.74V286.78c0-35.7 29.04-64.74 64.74-64.74h765.45c35.7 0 64.74 29.04 64.74 64.74v146.88c0 35.7-29.04 64.74-64.73 64.74zM131.29 277.04c-5.28 0-9.74 4.46-9.74 9.74v146.88c0 5.28 4.46 9.74 9.74 9.74h765.45c5.28 0 9.74-4.46 9.74-9.74V286.78c0-5.28-4.46-9.74-9.74-9.74H131.29z" fill="#020202" p-id="56769"></path><path d="M840.86 997.5H187.17c-40.84 0-74.07-33.23-74.07-74.07V443.4h801.83v480.02c0.01 40.85-33.22 74.08-74.07 74.08zM168.1 498.4v425.02c0 10.34 8.73 19.07 19.07 19.07h653.69c10.34 0 19.07-8.73 19.07-19.07V498.4H168.1z" fill="#020202" p-id="56770"></path><path d="M486.52 264.02h55V970h-55zM514 263.29l-90.73-157.14c-22.17-38.4-71.45-51.6-109.85-29.44-18.5 10.68-31.76 28.03-37.34 48.86-5.58 20.83-2.77 42.49 7.91 60.99l28.42 49.23-47.63 27.5-28.42-49.23c-18.03-31.22-22.79-67.7-13.4-102.72 9.38-35.02 31.75-64.23 62.97-82.26 64.67-37.33 147.65-15.1 184.98 49.57l90.73 157.14-47.64 27.5z" fill="#020202" p-id="56771"></path><path d="M779.5 263.29l-47.63-27.5 28.42-49.23c10.68-18.5 13.49-40.16 7.91-60.99-5.58-20.83-18.84-38.18-37.34-48.86-38.4-22.17-87.68-8.97-109.85 29.43l-90.73 157.14-47.63-27.5 90.73-157.14c37.33-64.67 120.32-86.9 184.98-49.57 31.22 18.03 53.58 47.24 62.97 82.26 9.38 35.02 4.62 71.5-13.4 102.72l-28.43 49.24z" fill="#020202" p-id="56772"></path></svg>