<?xml version="1.0" standalone="no"?><!DOCTYPE svg PUBLIC "-//W3C//DTD SVG 1.1//EN" "http://www.w3.org/Graphics/SVG/1.1/DTD/svg11.dtd"><svg t="1678515588015" class="icon" viewBox="0 0 1024 1024" version="1.1" xmlns="http://www.w3.org/2000/svg" p-id="15137" xmlns:xlink="http://www.w3.org/1999/xlink" width="200" height="200"><path d="M800.590767 679.966503 717.91479 679.966503c-11.048637 0-20.007683-8.958022-20.007683-20.007683 0-11.04966 8.958022-20.007683 20.007683-20.007683l82.675978 0c31.165814 0 60.740386-12.326746 83.268472-34.7085 22.667256-22.518876 35.150568-52.302203 35.150568-83.865059 0-31.151487-12.023848-60.58075-33.857109-82.867336-21.789259-22.240537-50.925856-34.952047-82.041528-35.789111-11.000542-0.296759-19.696598-9.420557-19.464307-20.423145 0.013303-0.577145-0.010233-1.136893-0.023536-1.700735-0.023536-0.832971-0.042979-1.670036-0.042979-2.526543 0-113.204272-92.14463-205.301829-205.406207-205.301829-87.748507 0-165.830863 55.731302-194.299241 138.679479-2.358721 6.872524-8.258081 11.926634-15.412015 13.202697-7.148817 1.276063-14.437827-1.428535-19.025309-7.060813-13.424754-16.482393-33.305547-25.936719-54.54222-25.936719-38.760792 0-70.293973 31.535227-70.293973 70.297043 0 5.593392 0.674359 11.202133 2.003634 16.671705 1.336438 5.501294 0.280386 11.311627-2.907213 15.990183s-8.207939 7.788383-13.81668 8.556886c-58.488089 8.017604-102.592586 58.672284-102.592586 117.826546 0 65.592904 53.426817 118.955252 119.097492 118.955252l46.517453 0c11.04966 0 20.007683 8.958022 20.007683 20.007683 0 11.04966-8.958022 20.007683-20.007683 20.007683l-46.517453 0c-87.73418 0-159.112857-71.314209-159.112857-158.970618 0-72.254627 49.27117-135.02423 117.455085-153.470347-0.095167-1.858324-0.141216-3.716648-0.141216-5.573949 0-60.827367 49.485041-110.312408 110.309338-110.312408 22.64065 0 44.294832 6.844895 62.457494 19.342534 40.615023-83.746356 125.995599-138.226155 220.820268-138.226155 130.72532 0 237.907435 102.687754 245.042949 231.605915 34.3002 5.021364 65.916269 21.034059 90.518596 46.147016 29.204136 29.810956 45.288462 69.185732 45.288462 110.87011 0 42.300408-16.677844 82.166371-46.963615 112.251573C881.985566 663.509692 842.397942 679.966503 800.590767 679.966503z" fill="#272636" p-id="15138"></path><path d="M361.009124 925.721673c-3.961218 0-7.940856-1.172709-11.389398-3.562129-7.806803-5.408173-10.735505-15.558347-7.009647-24.294312l96.909144-227.224118-105.259322 1.584078c-8.236592 0.12075-15.833617-4.901637-18.898419-12.627598-3.064802-7.725962-1.033539-16.542768 5.102205-22.148439l280.773731-256.532631c6.647397-6.072299 16.524348-6.954389 24.143886-2.166339 7.620561 4.790096 11.101849 14.074553 8.512884 22.693862l-53.612035 178.379667 101.144608 0c8.17724 0 15.531741 4.979408 18.571984 12.570293 3.042289 7.589862 1.158383 16.268522-4.755304 21.915126L374.829897 920.185586C370.994546 923.846976 366.016161 925.721673 361.009124 925.721673zM469.99942 629.964692c6.658653 0 12.889565 3.414773 16.610306 8.953929 3.774977 5.622044 4.451382 12.82305 1.793856 19.051915l-70.802556 165.980265 213.892485-204.219171L553.377386 619.73163c-6.327102 0-12.279674-2.935865-16.054651-8.011464-3.774977-5.076622-4.927219-11.610432-3.106758-17.669428l40.488133-134.702911L386.386094 631.312386l83.313497-1.346671C469.798852 629.964692 469.90016 629.964692 469.99942 629.964692z" fill="#272636" p-id="15139"></path></svg>