<?xml version="1.0" standalone="no"?><!DOCTYPE svg PUBLIC "-//W3C//DTD SVG 1.1//EN" "http://www.w3.org/Graphics/SVG/1.1/DTD/svg11.dtd"><svg t="1678515864445" class="icon" viewBox="0 0 1024 1024" version="1.1" xmlns="http://www.w3.org/2000/svg" p-id="25285" xmlns:xlink="http://www.w3.org/1999/xlink" width="200" height="200"><path d="M870.4 605.866667C928 384 812.8 149.333333 601.6 57.6c-55.466667-23.466667-115.2-36.266667-170.666667-38.4-19.2 0-29.866667 21.333333-17.066666 36.266667 96 100.266667 145.066667 234.666667 123.733333 379.733333-19.2 76.8-132.266667 57.6-170.666667 93.866667-40.533333 38.4 89.6 108.8 89.6 108.8-70.4 100.266667-181.333333 174.933333-300.8 200.533333-19.2 4.266667-23.466667 27.733333-6.4 38.4 36.266667 25.6 76.8 44.8 119.466667 59.733333 256 83.2 531.2-66.133333 601.6-330.666666z" fill="#FFE500" p-id="25286"></path><path d="M266.666667 972.8a245.333333 32 0 1 0 490.666666 0 245.333333 32 0 1 0-490.666666 0Z" fill="#45413C" p-id="25287"></path><path d="M386.133333 588.8c49.066667-14.933333 121.6-17.066667 136.533334-76.8 2.133333-19.2 4.266667-36.266667 4.266666-55.466667-34.133333 51.2-125.866667 38.4-162.133333 72.533334-17.066667 17.066667-2.133333 40.533333 21.333333 59.733333zM601.6 57.6c-55.466667-23.466667-115.2-36.266667-170.666667-38.4-19.2 0-29.866667 21.333333-17.066666 36.266667 12.8 14.933333 25.6 27.733333 36.266666 42.666666 200.533333 21.333333 366.933333 170.666667 409.6 371.2 10.666667 49.066667 12.8 98.133333 6.4 145.066667 0-2.133333 2.133333-6.4 2.133334-8.533333C928 384 812.8 149.333333 601.6 57.6zM149.333333 876.8c12.8 8.533333 27.733333 17.066667 42.666667 25.6 72.533333-23.466667 172.8-113.066667 221.866667-157.866667 14.933333-12.8 12.8-36.266667-4.266667-46.933333-68.266667 70.4-155.733333 123.733333-251.733333 142.933333-19.2 0-25.6 25.6-8.533334 36.266667z" fill="#FFF48C" p-id="25288"></path><path d="M639.786057 523.764057a23.466667 23.466667 0 1 0 14.58653-44.60909 23.466667 23.466667 0 1 0-14.58653 44.60909Z" fill="#45413C" p-id="25289"></path><path d="M676.329573 744.044984a27.733333 27.733333 0 1 0 17.233106-52.721638 27.733333 27.733333 0 1 0-17.233106 52.721638Z" fill="#FFFACF" p-id="25290"></path></svg>