<?xml version="1.0" standalone="no"?><!DOCTYPE svg PUBLIC "-//W3C//DTD SVG 1.1//EN" "http://www.w3.org/Graphics/SVG/1.1/DTD/svg11.dtd"><svg t="1678515928839" class="icon" viewBox="0 0 1024 1024" version="1.1" xmlns="http://www.w3.org/2000/svg" p-id="29059" xmlns:xlink="http://www.w3.org/1999/xlink" width="200" height="200"><path d="M266.666667 968.533333a245.333333 32 0 1 0 490.666666 0 245.333333 32 0 1 0-490.666666 0Z" fill="#45413C" p-id="29060"></path><path d="M494.933333 859.733333L192 458.666667c-6.4-8.533333-6.4-17.066667 0-25.6L494.933333 32c8.533333-10.666667 25.6-10.666667 34.133334 0L832 433.066667c6.4 8.533333 6.4 17.066667 0 25.6L529.066667 859.733333c-8.533333 12.8-25.6 12.8-34.133334 0z" fill="#FF6242" p-id="29061"></path><path d="M221.866667 499.2L494.933333 138.666667c8.533333-10.666667 25.6-10.666667 34.133334 0l273.066666 360.533333 29.866667-40.533333c6.4-8.533333 6.4-17.066667 0-25.6L529.066667 32c-8.533333-10.666667-25.6-10.666667-34.133334 0L192 433.066667c-6.4 8.533333-6.4 17.066667 0 25.6l29.866667 40.533333z" fill="#FF866E" p-id="29062"></path></svg>